<mxfile host="app.diagrams.net" modified="2021-12-21T01:53:15.932Z" agent="5.0 (Windows NT 6.1; Win64; x64) AppleWebKit/537.36 (KHTML, like Gecko) Chrome/96.0.4664.110 Safari/537.36" etag="f7yKpQzw5zh0YC4mBKtp" version="16.0.0" type="github">
  <diagram id="KFxLg2QQv44FPPkiTmiG" name="Page-1">
    <mxGraphModel dx="1102" dy="614" grid="1" gridSize="10" guides="1" tooltips="1" connect="1" arrows="1" fold="1" page="1" pageScale="1" pageWidth="850" pageHeight="1100" math="0" shadow="0">
      <root>
        <mxCell id="0" />
        <mxCell id="1" parent="0" />
        <mxCell id="ETj0uI6q2n11_R9Ab5VP-1" value="" style="ellipse;html=1;shape=startState;fillColor=#f8cecc;strokeColor=#b85450;" vertex="1" parent="1">
          <mxGeometry x="195" y="50" width="50" height="50" as="geometry" />
        </mxCell>
        <mxCell id="ETj0uI6q2n11_R9Ab5VP-2" value="" style="edgeStyle=orthogonalEdgeStyle;html=1;verticalAlign=bottom;endArrow=open;endSize=8;strokeColor=#82b366;rounded=0;fillColor=#d5e8d4;exitX=0.5;exitY=1;exitDx=0;exitDy=0;entryX=0.5;entryY=0;entryDx=0;entryDy=0;" edge="1" source="ETj0uI6q2n11_R9Ab5VP-1" parent="1" target="ETj0uI6q2n11_R9Ab5VP-3">
          <mxGeometry relative="1" as="geometry">
            <mxPoint x="220" y="160" as="targetPoint" />
            <Array as="points" />
          </mxGeometry>
        </mxCell>
        <mxCell id="ETj0uI6q2n11_R9Ab5VP-6" style="edgeStyle=orthogonalEdgeStyle;rounded=0;orthogonalLoop=1;jettySize=auto;html=1;exitX=0;exitY=0.5;exitDx=0;exitDy=0;entryX=0.5;entryY=0;entryDx=0;entryDy=0;fillColor=#d5e8d4;strokeColor=#82b366;" edge="1" parent="1" source="ETj0uI6q2n11_R9Ab5VP-3" target="ETj0uI6q2n11_R9Ab5VP-4">
          <mxGeometry relative="1" as="geometry" />
        </mxCell>
        <mxCell id="ETj0uI6q2n11_R9Ab5VP-9" value="No" style="edgeLabel;html=1;align=center;verticalAlign=middle;resizable=0;points=[];" vertex="1" connectable="0" parent="ETj0uI6q2n11_R9Ab5VP-6">
          <mxGeometry x="-0.6167" y="-3" relative="1" as="geometry">
            <mxPoint as="offset" />
          </mxGeometry>
        </mxCell>
        <mxCell id="ETj0uI6q2n11_R9Ab5VP-7" style="edgeStyle=orthogonalEdgeStyle;rounded=0;orthogonalLoop=1;jettySize=auto;html=1;exitX=0.5;exitY=1;exitDx=0;exitDy=0;entryX=0;entryY=0.211;entryDx=0;entryDy=0;entryPerimeter=0;fillColor=#d5e8d4;strokeColor=#82b366;" edge="1" parent="1" source="ETj0uI6q2n11_R9Ab5VP-3" target="ETj0uI6q2n11_R9Ab5VP-8">
          <mxGeometry relative="1" as="geometry">
            <Array as="points">
              <mxPoint x="220" y="289" />
            </Array>
          </mxGeometry>
        </mxCell>
        <mxCell id="ETj0uI6q2n11_R9Ab5VP-10" value="Yes" style="edgeLabel;html=1;align=center;verticalAlign=middle;resizable=0;points=[];" vertex="1" connectable="0" parent="ETj0uI6q2n11_R9Ab5VP-7">
          <mxGeometry x="-0.64" relative="1" as="geometry">
            <mxPoint as="offset" />
          </mxGeometry>
        </mxCell>
        <mxCell id="ETj0uI6q2n11_R9Ab5VP-3" value="registered ?" style="rhombus;whiteSpace=wrap;html=1;fillColor=#fff2cc;strokeColor=#d6b656;" vertex="1" parent="1">
          <mxGeometry x="170" y="180" width="100" height="60" as="geometry" />
        </mxCell>
        <mxCell id="ETj0uI6q2n11_R9Ab5VP-11" style="edgeStyle=orthogonalEdgeStyle;rounded=0;orthogonalLoop=1;jettySize=auto;html=1;exitX=0.5;exitY=1;exitDx=0;exitDy=0;entryX=0;entryY=0.667;entryDx=0;entryDy=0;entryPerimeter=0;fillColor=#d5e8d4;strokeColor=#82b366;" edge="1" parent="1" source="ETj0uI6q2n11_R9Ab5VP-4" target="ETj0uI6q2n11_R9Ab5VP-8">
          <mxGeometry relative="1" as="geometry" />
        </mxCell>
        <mxCell id="ETj0uI6q2n11_R9Ab5VP-4" value="Sign up" style="html=1;dashed=0;whitespace=wrap;fillColor=#d5e8d4;strokeColor=#82b366;" vertex="1" parent="1">
          <mxGeometry x="40" y="240" width="80" height="30" as="geometry" />
        </mxCell>
        <mxCell id="ETj0uI6q2n11_R9Ab5VP-15" style="edgeStyle=orthogonalEdgeStyle;rounded=0;orthogonalLoop=1;jettySize=auto;html=1;exitX=1;exitY=0.5;exitDx=0;exitDy=0;entryX=1;entryY=0.5;entryDx=0;entryDy=0;fillColor=#d5e8d4;strokeColor=#82b366;" edge="1" parent="1" source="ETj0uI6q2n11_R9Ab5VP-5" target="ETj0uI6q2n11_R9Ab5VP-14">
          <mxGeometry relative="1" as="geometry" />
        </mxCell>
        <mxCell id="ETj0uI6q2n11_R9Ab5VP-5" value="Login" style="html=1;dashed=0;whitespace=wrap;fillColor=#d5e8d4;strokeColor=#82b366;" vertex="1" parent="1">
          <mxGeometry x="310" y="300" width="80" height="30" as="geometry" />
        </mxCell>
        <mxCell id="ETj0uI6q2n11_R9Ab5VP-8" value="" style="html=1;points=[];perimeter=orthogonalPerimeter;fillColor=#b1ddf0;strokeColor=#10739e;" vertex="1" parent="1">
          <mxGeometry x="250" y="270" width="10" height="90" as="geometry" />
        </mxCell>
        <mxCell id="ETj0uI6q2n11_R9Ab5VP-12" style="edgeStyle=orthogonalEdgeStyle;rounded=0;orthogonalLoop=1;jettySize=auto;html=1;exitX=1;exitY=0.5;exitDx=0;exitDy=0;entryX=0;entryY=0.5;entryDx=0;entryDy=0;exitPerimeter=0;fillColor=#d5e8d4;strokeColor=#82b366;" edge="1" parent="1" source="ETj0uI6q2n11_R9Ab5VP-8" target="ETj0uI6q2n11_R9Ab5VP-5">
          <mxGeometry relative="1" as="geometry">
            <mxPoint x="230" y="250" as="sourcePoint" />
            <mxPoint x="260" y="298.99" as="targetPoint" />
            <Array as="points">
              <mxPoint x="290" y="315" />
              <mxPoint x="290" y="315" />
            </Array>
          </mxGeometry>
        </mxCell>
        <mxCell id="ETj0uI6q2n11_R9Ab5VP-33" style="edgeStyle=orthogonalEdgeStyle;rounded=0;orthogonalLoop=1;jettySize=auto;html=1;exitX=0.5;exitY=1;exitDx=0;exitDy=0;entryX=0.485;entryY=0.2;entryDx=0;entryDy=0;entryPerimeter=0;" edge="1" parent="1" source="ETj0uI6q2n11_R9Ab5VP-14" target="ETj0uI6q2n11_R9Ab5VP-32">
          <mxGeometry relative="1" as="geometry" />
        </mxCell>
        <mxCell id="ETj0uI6q2n11_R9Ab5VP-14" value="View Dashboard" style="html=1;dashed=0;whitespace=wrap;fillColor=#d5e8d4;strokeColor=#82b366;" vertex="1" parent="1">
          <mxGeometry x="295" y="350" width="110" height="30" as="geometry" />
        </mxCell>
        <mxCell id="ETj0uI6q2n11_R9Ab5VP-21" style="edgeStyle=orthogonalEdgeStyle;rounded=0;orthogonalLoop=1;jettySize=auto;html=1;exitX=0.5;exitY=1;exitDx=0;exitDy=0;entryX=0.55;entryY=0;entryDx=0;entryDy=0;entryPerimeter=0;" edge="1" parent="1" source="ETj0uI6q2n11_R9Ab5VP-16" target="ETj0uI6q2n11_R9Ab5VP-19">
          <mxGeometry relative="1" as="geometry" />
        </mxCell>
        <mxCell id="ETj0uI6q2n11_R9Ab5VP-16" value="Manage Questionare" style="html=1;dashed=0;whitespace=wrap;fillColor=#d5e8d4;strokeColor=#82b366;" vertex="1" parent="1">
          <mxGeometry x="90" y="440" width="120" height="30" as="geometry" />
        </mxCell>
        <mxCell id="ETj0uI6q2n11_R9Ab5VP-17" value="" style="ellipse;html=1;shape=endState;fillColor=#f8cecc;strokeColor=#b85450;" vertex="1" parent="1">
          <mxGeometry x="250" y="800" width="60" height="60" as="geometry" />
        </mxCell>
        <mxCell id="ETj0uI6q2n11_R9Ab5VP-22" style="edgeStyle=orthogonalEdgeStyle;rounded=0;orthogonalLoop=1;jettySize=auto;html=1;exitX=0.25;exitY=0.5;exitDx=0;exitDy=0;exitPerimeter=0;" edge="1" parent="1" source="ETj0uI6q2n11_R9Ab5VP-19">
          <mxGeometry relative="1" as="geometry">
            <mxPoint x="80" y="590" as="targetPoint" />
            <Array as="points">
              <mxPoint x="90" y="525" />
              <mxPoint x="90" y="560" />
              <mxPoint x="80" y="560" />
            </Array>
          </mxGeometry>
        </mxCell>
        <mxCell id="ETj0uI6q2n11_R9Ab5VP-26" style="edgeStyle=orthogonalEdgeStyle;rounded=0;orthogonalLoop=1;jettySize=auto;html=1;exitX=0.75;exitY=0.5;exitDx=0;exitDy=0;exitPerimeter=0;entryX=0.5;entryY=0;entryDx=0;entryDy=0;" edge="1" parent="1" source="ETj0uI6q2n11_R9Ab5VP-19" target="ETj0uI6q2n11_R9Ab5VP-25">
          <mxGeometry relative="1" as="geometry" />
        </mxCell>
        <mxCell id="ETj0uI6q2n11_R9Ab5VP-27" style="edgeStyle=orthogonalEdgeStyle;rounded=0;orthogonalLoop=1;jettySize=auto;html=1;exitX=0.25;exitY=0.5;exitDx=0;exitDy=0;exitPerimeter=0;entryX=0.5;entryY=0;entryDx=0;entryDy=0;" edge="1" parent="1" source="ETj0uI6q2n11_R9Ab5VP-19" target="ETj0uI6q2n11_R9Ab5VP-24">
          <mxGeometry relative="1" as="geometry">
            <Array as="points">
              <mxPoint x="175" y="525" />
            </Array>
          </mxGeometry>
        </mxCell>
        <mxCell id="ETj0uI6q2n11_R9Ab5VP-19" value="" style="shape=line;html=1;strokeWidth=6;strokeColor=#10739e;fillColor=#b1ddf0;" vertex="1" parent="1">
          <mxGeometry x="60" y="520" width="200" height="10" as="geometry" />
        </mxCell>
        <mxCell id="ETj0uI6q2n11_R9Ab5VP-29" style="edgeStyle=orthogonalEdgeStyle;rounded=0;orthogonalLoop=1;jettySize=auto;html=1;exitX=0.5;exitY=1;exitDx=0;exitDy=0;entryX=0;entryY=0.5;entryDx=0;entryDy=0;entryPerimeter=0;" edge="1" parent="1" source="ETj0uI6q2n11_R9Ab5VP-23" target="ETj0uI6q2n11_R9Ab5VP-28">
          <mxGeometry relative="1" as="geometry" />
        </mxCell>
        <mxCell id="ETj0uI6q2n11_R9Ab5VP-23" value="Create questions" style="html=1;dashed=0;whitespace=wrap;fillColor=#d5e8d4;strokeColor=#82b366;" vertex="1" parent="1">
          <mxGeometry x="25" y="590" width="110" height="30" as="geometry" />
        </mxCell>
        <mxCell id="ETj0uI6q2n11_R9Ab5VP-31" style="edgeStyle=orthogonalEdgeStyle;rounded=0;orthogonalLoop=1;jettySize=auto;html=1;exitX=0.5;exitY=1;exitDx=0;exitDy=0;entryX=0.5;entryY=0;entryDx=0;entryDy=0;entryPerimeter=0;" edge="1" parent="1" source="ETj0uI6q2n11_R9Ab5VP-24" target="ETj0uI6q2n11_R9Ab5VP-28">
          <mxGeometry relative="1" as="geometry" />
        </mxCell>
        <mxCell id="ETj0uI6q2n11_R9Ab5VP-24" value="Edit" style="html=1;dashed=0;whitespace=wrap;fillColor=#d5e8d4;strokeColor=#82b366;" vertex="1" parent="1">
          <mxGeometry x="150" y="590" width="50" height="30" as="geometry" />
        </mxCell>
        <mxCell id="ETj0uI6q2n11_R9Ab5VP-30" style="edgeStyle=orthogonalEdgeStyle;rounded=0;orthogonalLoop=1;jettySize=auto;html=1;exitX=0.5;exitY=1;exitDx=0;exitDy=0;entryX=1;entryY=0.5;entryDx=0;entryDy=0;entryPerimeter=0;" edge="1" parent="1" source="ETj0uI6q2n11_R9Ab5VP-25" target="ETj0uI6q2n11_R9Ab5VP-28">
          <mxGeometry relative="1" as="geometry" />
        </mxCell>
        <mxCell id="ETj0uI6q2n11_R9Ab5VP-25" value="Delete" style="html=1;dashed=0;whitespace=wrap;fillColor=#d5e8d4;strokeColor=#82b366;" vertex="1" parent="1">
          <mxGeometry x="220" y="590" width="50" height="30" as="geometry" />
        </mxCell>
        <mxCell id="ETj0uI6q2n11_R9Ab5VP-28" value="" style="html=1;shape=mxgraph.sysml.flowFinal;strokeWidth=2;verticalLabelPosition=bottom;verticalAlignment=top;fillColor=#ffff88;strokeColor=#36393d;" vertex="1" parent="1">
          <mxGeometry x="155" y="660" width="40" height="40" as="geometry" />
        </mxCell>
        <mxCell id="ETj0uI6q2n11_R9Ab5VP-34" style="edgeStyle=orthogonalEdgeStyle;rounded=0;orthogonalLoop=1;jettySize=auto;html=1;exitX=0.25;exitY=0.5;exitDx=0;exitDy=0;exitPerimeter=0;entryX=1;entryY=0.5;entryDx=0;entryDy=0;" edge="1" parent="1" source="ETj0uI6q2n11_R9Ab5VP-32" target="ETj0uI6q2n11_R9Ab5VP-16">
          <mxGeometry relative="1" as="geometry">
            <Array as="points">
              <mxPoint x="300" y="455" />
            </Array>
          </mxGeometry>
        </mxCell>
        <mxCell id="ETj0uI6q2n11_R9Ab5VP-35" style="edgeStyle=orthogonalEdgeStyle;rounded=0;orthogonalLoop=1;jettySize=auto;html=1;exitX=0.75;exitY=0.5;exitDx=0;exitDy=0;exitPerimeter=0;entryX=0.5;entryY=0;entryDx=0;entryDy=0;" edge="1" parent="1" source="ETj0uI6q2n11_R9Ab5VP-32" target="ETj0uI6q2n11_R9Ab5VP-36">
          <mxGeometry relative="1" as="geometry">
            <mxPoint x="420" y="470" as="targetPoint" />
          </mxGeometry>
        </mxCell>
        <mxCell id="ETj0uI6q2n11_R9Ab5VP-32" value="" style="shape=line;html=1;strokeWidth=6;strokeColor=#10739e;fillColor=#b1ddf0;" vertex="1" parent="1">
          <mxGeometry x="250" y="410" width="200" height="10" as="geometry" />
        </mxCell>
        <mxCell id="ETj0uI6q2n11_R9Ab5VP-48" style="edgeStyle=orthogonalEdgeStyle;rounded=0;orthogonalLoop=1;jettySize=auto;html=1;exitX=0.5;exitY=1;exitDx=0;exitDy=0;entryX=0.47;entryY=0.2;entryDx=0;entryDy=0;entryPerimeter=0;" edge="1" parent="1" source="ETj0uI6q2n11_R9Ab5VP-36" target="ETj0uI6q2n11_R9Ab5VP-40">
          <mxGeometry relative="1" as="geometry" />
        </mxCell>
        <mxCell id="ETj0uI6q2n11_R9Ab5VP-36" value="Manage Client" style="html=1;dashed=0;whitespace=wrap;fillColor=#d5e8d4;strokeColor=#82b366;" vertex="1" parent="1">
          <mxGeometry x="355" y="470" width="95" height="30" as="geometry" />
        </mxCell>
        <mxCell id="ETj0uI6q2n11_R9Ab5VP-37" style="edgeStyle=orthogonalEdgeStyle;rounded=0;orthogonalLoop=1;jettySize=auto;html=1;exitX=0.25;exitY=0.5;exitDx=0;exitDy=0;exitPerimeter=0;entryX=0.5;entryY=0;entryDx=0;entryDy=0;" edge="1" source="ETj0uI6q2n11_R9Ab5VP-40" parent="1" target="ETj0uI6q2n11_R9Ab5VP-42">
          <mxGeometry relative="1" as="geometry">
            <mxPoint x="355" y="620" as="targetPoint" />
            <Array as="points">
              <mxPoint x="365" y="555" />
            </Array>
          </mxGeometry>
        </mxCell>
        <mxCell id="ETj0uI6q2n11_R9Ab5VP-38" style="edgeStyle=orthogonalEdgeStyle;rounded=0;orthogonalLoop=1;jettySize=auto;html=1;exitX=0.75;exitY=0.5;exitDx=0;exitDy=0;exitPerimeter=0;entryX=0.5;entryY=0;entryDx=0;entryDy=0;" edge="1" source="ETj0uI6q2n11_R9Ab5VP-40" target="ETj0uI6q2n11_R9Ab5VP-46" parent="1">
          <mxGeometry relative="1" as="geometry" />
        </mxCell>
        <mxCell id="ETj0uI6q2n11_R9Ab5VP-39" style="edgeStyle=orthogonalEdgeStyle;rounded=0;orthogonalLoop=1;jettySize=auto;html=1;exitX=0.25;exitY=0.5;exitDx=0;exitDy=0;exitPerimeter=0;entryX=0.5;entryY=0;entryDx=0;entryDy=0;" edge="1" source="ETj0uI6q2n11_R9Ab5VP-40" target="ETj0uI6q2n11_R9Ab5VP-44" parent="1">
          <mxGeometry relative="1" as="geometry">
            <Array as="points">
              <mxPoint x="450" y="555" />
            </Array>
          </mxGeometry>
        </mxCell>
        <mxCell id="ETj0uI6q2n11_R9Ab5VP-40" value="" style="shape=line;html=1;strokeWidth=6;strokeColor=#10739e;fillColor=#b1ddf0;" vertex="1" parent="1">
          <mxGeometry x="335" y="550" width="200" height="10" as="geometry" />
        </mxCell>
        <mxCell id="ETj0uI6q2n11_R9Ab5VP-41" style="edgeStyle=orthogonalEdgeStyle;rounded=0;orthogonalLoop=1;jettySize=auto;html=1;exitX=0.5;exitY=1;exitDx=0;exitDy=0;entryX=0;entryY=0.5;entryDx=0;entryDy=0;entryPerimeter=0;" edge="1" source="ETj0uI6q2n11_R9Ab5VP-42" target="ETj0uI6q2n11_R9Ab5VP-47" parent="1">
          <mxGeometry relative="1" as="geometry" />
        </mxCell>
        <mxCell id="ETj0uI6q2n11_R9Ab5VP-42" value="Add Client" style="html=1;dashed=0;whitespace=wrap;fillColor=#d5e8d4;strokeColor=#82b366;" vertex="1" parent="1">
          <mxGeometry x="330" y="620" width="70" height="30" as="geometry" />
        </mxCell>
        <mxCell id="ETj0uI6q2n11_R9Ab5VP-43" style="edgeStyle=orthogonalEdgeStyle;rounded=0;orthogonalLoop=1;jettySize=auto;html=1;exitX=0.5;exitY=1;exitDx=0;exitDy=0;entryX=0.5;entryY=0;entryDx=0;entryDy=0;entryPerimeter=0;" edge="1" source="ETj0uI6q2n11_R9Ab5VP-44" target="ETj0uI6q2n11_R9Ab5VP-47" parent="1">
          <mxGeometry relative="1" as="geometry" />
        </mxCell>
        <mxCell id="ETj0uI6q2n11_R9Ab5VP-44" value="Edit" style="html=1;dashed=0;whitespace=wrap;fillColor=#d5e8d4;strokeColor=#82b366;" vertex="1" parent="1">
          <mxGeometry x="425" y="620" width="50" height="30" as="geometry" />
        </mxCell>
        <mxCell id="ETj0uI6q2n11_R9Ab5VP-45" style="edgeStyle=orthogonalEdgeStyle;rounded=0;orthogonalLoop=1;jettySize=auto;html=1;exitX=0.5;exitY=1;exitDx=0;exitDy=0;entryX=1;entryY=0.5;entryDx=0;entryDy=0;entryPerimeter=0;" edge="1" source="ETj0uI6q2n11_R9Ab5VP-46" target="ETj0uI6q2n11_R9Ab5VP-47" parent="1">
          <mxGeometry relative="1" as="geometry" />
        </mxCell>
        <mxCell id="ETj0uI6q2n11_R9Ab5VP-46" value="Delete" style="html=1;dashed=0;whitespace=wrap;fillColor=#d5e8d4;strokeColor=#82b366;" vertex="1" parent="1">
          <mxGeometry x="495" y="620" width="50" height="30" as="geometry" />
        </mxCell>
        <mxCell id="ETj0uI6q2n11_R9Ab5VP-47" value="" style="html=1;shape=mxgraph.sysml.flowFinal;strokeWidth=2;verticalLabelPosition=bottom;verticalAlignment=top;fillColor=#ffff88;strokeColor=#36393d;" vertex="1" parent="1">
          <mxGeometry x="430" y="690" width="40" height="40" as="geometry" />
        </mxCell>
      </root>
    </mxGraphModel>
  </diagram>
</mxfile>
